<mxfile host="app.diagrams.net" modified="2022-06-02T09:53:42.153Z" agent="5.0 (X11)" etag="iIYqTYkjA_0saBjSYC7K" version="18.1.3" type="github">
  <diagram id="Hz01uMnlYN-jJrnOBzyM" name="Page-1">
    <mxGraphModel dx="1673" dy="965" grid="1" gridSize="10" guides="1" tooltips="1" connect="1" arrows="1" fold="1" page="1" pageScale="1" pageWidth="827" pageHeight="1169" math="0" shadow="0">
      <root>
        <mxCell id="0" />
        <mxCell id="1" parent="0" />
        <mxCell id="j3MlyM1Df4kYm5ywRDjn-4" style="edgeStyle=orthogonalEdgeStyle;rounded=0;orthogonalLoop=1;jettySize=auto;html=1;exitX=0.5;exitY=1;exitDx=0;exitDy=0;entryX=0.5;entryY=0;entryDx=0;entryDy=0;" parent="1" source="j3MlyM1Df4kYm5ywRDjn-1" target="j3MlyM1Df4kYm5ywRDjn-3" edge="1">
          <mxGeometry relative="1" as="geometry" />
        </mxCell>
        <mxCell id="j3MlyM1Df4kYm5ywRDjn-1" value="X(features)" style="rounded=0;whiteSpace=wrap;html=1;" parent="1" vertex="1">
          <mxGeometry x="230" y="110" width="120" height="60" as="geometry" />
        </mxCell>
        <mxCell id="j3MlyM1Df4kYm5ywRDjn-5" style="edgeStyle=orthogonalEdgeStyle;rounded=0;orthogonalLoop=1;jettySize=auto;html=1;exitX=0.5;exitY=1;exitDx=0;exitDy=0;" parent="1" source="j3MlyM1Df4kYm5ywRDjn-2" edge="1">
          <mxGeometry relative="1" as="geometry">
            <mxPoint x="350" y="200" as="targetPoint" />
          </mxGeometry>
        </mxCell>
        <mxCell id="j3MlyM1Df4kYm5ywRDjn-2" value="y(target)" style="rounded=0;whiteSpace=wrap;html=1;" parent="1" vertex="1">
          <mxGeometry x="360" y="110" width="120" height="60" as="geometry" />
        </mxCell>
        <mxCell id="j3MlyM1Df4kYm5ywRDjn-16" style="edgeStyle=orthogonalEdgeStyle;rounded=0;orthogonalLoop=1;jettySize=auto;html=1;exitX=0.5;exitY=1;exitDx=0;exitDy=0;" parent="1" source="j3MlyM1Df4kYm5ywRDjn-3" target="j3MlyM1Df4kYm5ywRDjn-6" edge="1">
          <mxGeometry relative="1" as="geometry" />
        </mxCell>
        <mxCell id="j3MlyM1Df4kYm5ywRDjn-17" style="edgeStyle=orthogonalEdgeStyle;rounded=0;orthogonalLoop=1;jettySize=auto;html=1;exitX=0.5;exitY=1;exitDx=0;exitDy=0;entryX=0.5;entryY=0;entryDx=0;entryDy=0;" parent="1" source="j3MlyM1Df4kYm5ywRDjn-3" target="j3MlyM1Df4kYm5ywRDjn-7" edge="1">
          <mxGeometry relative="1" as="geometry" />
        </mxCell>
        <mxCell id="j3MlyM1Df4kYm5ywRDjn-20" style="edgeStyle=orthogonalEdgeStyle;rounded=0;orthogonalLoop=1;jettySize=auto;html=1;exitX=0.5;exitY=1;exitDx=0;exitDy=0;entryX=0.5;entryY=0;entryDx=0;entryDy=0;" parent="1" source="j3MlyM1Df4kYm5ywRDjn-3" target="j3MlyM1Df4kYm5ywRDjn-14" edge="1">
          <mxGeometry relative="1" as="geometry" />
        </mxCell>
        <mxCell id="j3MlyM1Df4kYm5ywRDjn-21" style="edgeStyle=orthogonalEdgeStyle;rounded=0;orthogonalLoop=1;jettySize=auto;html=1;exitX=0.5;exitY=1;exitDx=0;exitDy=0;" parent="1" source="j3MlyM1Df4kYm5ywRDjn-3" target="j3MlyM1Df4kYm5ywRDjn-15" edge="1">
          <mxGeometry relative="1" as="geometry" />
        </mxCell>
        <mxCell id="j3MlyM1Df4kYm5ywRDjn-3" value="Subsampling" style="rounded=0;whiteSpace=wrap;html=1;" parent="1" vertex="1">
          <mxGeometry x="290" y="200" width="120" height="60" as="geometry" />
        </mxCell>
        <mxCell id="j3MlyM1Df4kYm5ywRDjn-29" style="edgeStyle=orthogonalEdgeStyle;rounded=0;orthogonalLoop=1;jettySize=auto;html=1;exitX=0.5;exitY=1;exitDx=0;exitDy=0;entryX=0.5;entryY=0;entryDx=0;entryDy=0;" parent="1" source="j3MlyM1Df4kYm5ywRDjn-6" target="j3MlyM1Df4kYm5ywRDjn-27" edge="1">
          <mxGeometry relative="1" as="geometry" />
        </mxCell>
        <mxCell id="j3MlyM1Df4kYm5ywRDjn-6" value="X (subsample)" style="rounded=0;whiteSpace=wrap;html=1;" parent="1" vertex="1">
          <mxGeometry x="20" y="300" width="120" height="60" as="geometry" />
        </mxCell>
        <mxCell id="j3MlyM1Df4kYm5ywRDjn-30" style="edgeStyle=orthogonalEdgeStyle;rounded=0;orthogonalLoop=1;jettySize=auto;html=1;exitX=0.5;exitY=1;exitDx=0;exitDy=0;" parent="1" source="j3MlyM1Df4kYm5ywRDjn-7" edge="1">
          <mxGeometry relative="1" as="geometry">
            <mxPoint x="140" y="410" as="targetPoint" />
          </mxGeometry>
        </mxCell>
        <mxCell id="j3MlyM1Df4kYm5ywRDjn-7" value="y(subsample)" style="rounded=0;whiteSpace=wrap;html=1;" parent="1" vertex="1">
          <mxGeometry x="150" y="300" width="120" height="60" as="geometry" />
        </mxCell>
        <mxCell id="j3MlyM1Df4kYm5ywRDjn-14" value="X (subsample)" style="rounded=0;whiteSpace=wrap;html=1;" parent="1" vertex="1">
          <mxGeometry x="570" y="300" width="120" height="60" as="geometry" />
        </mxCell>
        <mxCell id="j3MlyM1Df4kYm5ywRDjn-34" style="edgeStyle=orthogonalEdgeStyle;rounded=0;orthogonalLoop=1;jettySize=auto;html=1;exitX=0.5;exitY=1;exitDx=0;exitDy=0;" parent="1" source="j3MlyM1Df4kYm5ywRDjn-15" target="j3MlyM1Df4kYm5ywRDjn-33" edge="1">
          <mxGeometry relative="1" as="geometry" />
        </mxCell>
        <mxCell id="j3MlyM1Df4kYm5ywRDjn-15" value="y(subsample)" style="rounded=0;whiteSpace=wrap;html=1;" parent="1" vertex="1">
          <mxGeometry x="700" y="300" width="120" height="60" as="geometry" />
        </mxCell>
        <mxCell id="j3MlyM1Df4kYm5ywRDjn-41" value="" style="edgeStyle=orthogonalEdgeStyle;rounded=0;orthogonalLoop=1;jettySize=auto;html=1;entryX=0.5;entryY=0;entryDx=0;entryDy=0;exitX=0.5;exitY=1;exitDx=0;exitDy=0;" parent="1" source="rcQwtoCR0pDMbT0KjYeT-1" target="j3MlyM1Df4kYm5ywRDjn-39" edge="1">
          <mxGeometry relative="1" as="geometry">
            <mxPoint x="426.25" y="410" as="targetPoint" />
          </mxGeometry>
        </mxCell>
        <mxCell id="j3MlyM1Df4kYm5ywRDjn-22" value="........................................................." style="text;html=1;strokeColor=none;fillColor=none;align=center;verticalAlign=middle;whiteSpace=wrap;rounded=0;" parent="1" vertex="1">
          <mxGeometry x="320" y="315" width="220" height="30" as="geometry" />
        </mxCell>
        <mxCell id="j3MlyM1Df4kYm5ywRDjn-36" value="" style="edgeStyle=orthogonalEdgeStyle;rounded=0;orthogonalLoop=1;jettySize=auto;html=1;" parent="1" source="j3MlyM1Df4kYm5ywRDjn-27" target="j3MlyM1Df4kYm5ywRDjn-35" edge="1">
          <mxGeometry relative="1" as="geometry" />
        </mxCell>
        <mxCell id="j3MlyM1Df4kYm5ywRDjn-27" value="Estimator 1" style="swimlane;childLayout=stackLayout;horizontal=1;startSize=30;horizontalStack=0;rounded=1;fontSize=14;fontStyle=0;strokeWidth=2;resizeParent=0;resizeLast=1;shadow=0;dashed=0;align=center;fillColor=#f8cecc;strokeColor=#b85450;" parent="1" vertex="1">
          <mxGeometry x="60" y="410" width="160" height="70" as="geometry" />
        </mxCell>
        <mxCell id="j3MlyM1Df4kYm5ywRDjn-31" style="edgeStyle=orthogonalEdgeStyle;rounded=0;orthogonalLoop=1;jettySize=auto;html=1;exitX=0.5;exitY=1;exitDx=0;exitDy=0;entryX=0.5;entryY=0;entryDx=0;entryDy=0;" parent="1" target="j3MlyM1Df4kYm5ywRDjn-33" edge="1">
          <mxGeometry relative="1" as="geometry">
            <mxPoint x="650" y="360" as="sourcePoint" />
          </mxGeometry>
        </mxCell>
        <mxCell id="j3MlyM1Df4kYm5ywRDjn-38" value="" style="edgeStyle=orthogonalEdgeStyle;rounded=0;orthogonalLoop=1;jettySize=auto;html=1;" parent="1" source="j3MlyM1Df4kYm5ywRDjn-33" target="j3MlyM1Df4kYm5ywRDjn-37" edge="1">
          <mxGeometry relative="1" as="geometry" />
        </mxCell>
        <mxCell id="j3MlyM1Df4kYm5ywRDjn-33" value="Estimator n" style="swimlane;childLayout=stackLayout;horizontal=1;startSize=30;horizontalStack=0;rounded=1;fontSize=14;fontStyle=0;strokeWidth=2;resizeParent=0;resizeLast=1;shadow=0;dashed=0;align=center;fillColor=#f8cecc;strokeColor=#b85450;" parent="1" vertex="1">
          <mxGeometry x="630" y="410" width="160" height="70" as="geometry" />
        </mxCell>
        <mxCell id="j3MlyM1Df4kYm5ywRDjn-35" value="y predicted 1" style="whiteSpace=wrap;html=1;fontSize=14;fillColor=#f8cecc;strokeColor=#b85450;fontStyle=0;startSize=30;rounded=1;strokeWidth=2;shadow=0;dashed=0;" parent="1" vertex="1">
          <mxGeometry x="80" y="565" width="120" height="60" as="geometry" />
        </mxCell>
        <mxCell id="j3MlyM1Df4kYm5ywRDjn-37" value="y predicted n" style="whiteSpace=wrap;html=1;fontSize=14;fillColor=#f8cecc;strokeColor=#b85450;fontStyle=0;startSize=30;rounded=1;strokeWidth=2;shadow=0;dashed=0;" parent="1" vertex="1">
          <mxGeometry x="650" y="565" width="120" height="60" as="geometry" />
        </mxCell>
        <mxCell id="j3MlyM1Df4kYm5ywRDjn-39" value="y predicted .." style="whiteSpace=wrap;html=1;fontSize=14;fillColor=#f8cecc;strokeColor=#b85450;fontStyle=0;startSize=30;rounded=1;strokeWidth=2;shadow=0;dashed=0;" parent="1" vertex="1">
          <mxGeometry x="366.25" y="560" width="120" height="60" as="geometry" />
        </mxCell>
        <mxCell id="j3MlyM1Df4kYm5ywRDjn-44" value="" style="edgeStyle=orthogonalEdgeStyle;rounded=0;orthogonalLoop=1;jettySize=auto;html=1;startArrow=none;" parent="1" source="j3MlyM1Df4kYm5ywRDjn-45" edge="1">
          <mxGeometry relative="1" as="geometry">
            <mxPoint x="426.2857142857142" y="749.9999999999998" as="targetPoint" />
          </mxGeometry>
        </mxCell>
        <mxCell id="j3MlyM1Df4kYm5ywRDjn-42" value="" style="strokeWidth=2;html=1;shape=mxgraph.flowchart.annotation_1;align=left;pointerEvents=1;rotation=-90;" parent="1" vertex="1">
          <mxGeometry x="410" y="360" width="32.5" height="585" as="geometry" />
        </mxCell>
        <mxCell id="j3MlyM1Df4kYm5ywRDjn-45" value="Voting step" style="text;html=1;strokeColor=#9673a6;fillColor=#e1d5e7;align=center;verticalAlign=middle;whiteSpace=wrap;rounded=0;" parent="1" vertex="1">
          <mxGeometry x="381.25" y="670" width="90" height="50" as="geometry" />
        </mxCell>
        <mxCell id="j3MlyM1Df4kYm5ywRDjn-47" value="y predicted " style="whiteSpace=wrap;html=1;fontSize=14;fillColor=#d5e8d4;strokeColor=#82b366;fontStyle=0;startSize=30;rounded=1;strokeWidth=2;shadow=0;dashed=0;" parent="1" vertex="1">
          <mxGeometry x="366.25" y="760" width="120" height="60" as="geometry" />
        </mxCell>
        <mxCell id="rcQwtoCR0pDMbT0KjYeT-1" value="Estimator ..." style="swimlane;childLayout=stackLayout;horizontal=1;startSize=30;horizontalStack=0;rounded=1;fontSize=14;fontStyle=0;strokeWidth=2;resizeParent=0;resizeLast=1;shadow=0;dashed=0;align=center;fillColor=#f8cecc;strokeColor=#b85450;" vertex="1" parent="1">
          <mxGeometry x="346.25" y="410" width="160" height="70" as="geometry" />
        </mxCell>
        <mxCell id="rcQwtoCR0pDMbT0KjYeT-2" value="" style="endArrow=classic;html=1;rounded=0;exitX=0.5;exitY=1;exitDx=0;exitDy=0;" edge="1" parent="1" source="j3MlyM1Df4kYm5ywRDjn-39" target="j3MlyM1Df4kYm5ywRDjn-45">
          <mxGeometry width="50" height="50" relative="1" as="geometry">
            <mxPoint x="510" y="610" as="sourcePoint" />
            <mxPoint x="560" y="560" as="targetPoint" />
          </mxGeometry>
        </mxCell>
      </root>
    </mxGraphModel>
  </diagram>
</mxfile>
